<?xml version="1.0" standalone="no"?>
<!DOCTYPE svg PUBLIC "-//W3C//DTD SVG 20010904//EN"
 "http://www.w3.org/TR/2001/REC-SVG-20010904/DTD/svg10.dtd">
<svg version="1.0" xmlns="http://www.w3.org/2000/svg"
 width="1000.000000pt" height="1000.000000pt" viewBox="0 0 1000.000000 1000.000000"
 preserveAspectRatio="xMidYMid meet">

<g transform="translate(0.000000,1000.000000) scale(0.100000,-0.100000)"
fill="#000000" stroke="none">
<path d="M3850 8385 c-47 -7 -125 -25 -175 -40 -103 -29 -306 -125 -341 -160
-29 -29 -31 -68 -4 -95 29 -29 64 -25 128 15 191 118 469 180 695 155 265 -29
480 -125 685 -303 78 -68 133 -86 201 -68 25 7 58 22 72 34 154 128 206 164
314 217 198 99 416 141 625 120 505 -51 904 -397 1028 -890 23 -91 26 -126 26
-265 1 -215 -27 -342 -115 -520 -83 -169 -188 -293 -568 -670 -128 -126 -237
-238 -243 -248 -14 -27 8 -76 38 -83 13 -3 34 -4 47 0 26 6 542 521 652 651
42 49 96 119 120 155 220 334 270 760 134 1147 -149 423 -516 741 -969 839
-118 26 -391 26 -508 1 -234 -52 -446 -157 -614 -307 -34 -30 -66 -50 -80 -50
-15 0 -51 23 -94 59 -181 152 -371 247 -597 296 -102 22 -350 28 -457 10z"/>
<path d="M2945 7789 c-35 -43 -107 -196 -139 -297 -40 -129 -57 -243 -57 -397
1 -217 37 -377 131 -571 88 -181 200 -313 616 -725 500 -493 1212 -1138 1309
-1183 81 -39 178 -53 261 -37 132 24 167 50 569 415 276 251 285 259 285 285
0 29 -43 71 -72 71 -16 0 -90 -61 -243 -201 -291 -266 -431 -387 -480 -412
-48 -24 -154 -34 -211 -18 -60 16 -101 47 -330 251 -421 374 -860 787 -1149
1081 -301 306 -383 411 -457 582 -147 338 -125 734 56 1042 35 61 38 101 7
127 -34 27 -65 23 -96 -13z"/>
<path d="M4199 6802 c-15 -13 -22 -30 -22 -52 0 -62 119 -140 213 -140 57 0
131 31 175 74 51 49 56 76 20 111 -32 33 -64 31 -110 -5 -43 -34 -74 -45 -108
-36 -13 3 -41 19 -62 36 -43 34 -73 38 -106 12z"/>
<path d="M5405 6795 c-36 -35 -31 -62 20 -111 82 -79 194 -93 296 -38 92 50
119 104 75 148 -33 34 -65 33 -111 -4 -43 -34 -74 -45 -108 -36 -13 3 -41 19
-62 36 -46 36 -78 38 -110 5z"/>
<path d="M4585 6175 c-58 -57 -14 -107 138 -154 199 -61 507 -40 654 45 50 29
63 62 39 99 -23 36 -59 41 -100 16 -62 -39 -177 -61 -315 -61 -143 0 -243 18
-314 55 -61 31 -72 31 -102 0z"/>
<path d="M2311 5439 c-87 -17 -174 -87 -211 -172 l-21 -48 -41 36 c-77 65
-188 91 -280 63 -56 -16 -122 -79 -155 -146 -25 -51 -28 -67 -28 -162 0 -84 5
-120 24 -178 13 -40 107 -240 208 -445 267 -537 363 -753 479 -1073 106 -294
157 -363 494 -674 270 -248 520 -498 534 -532 9 -22 16 -103 20 -233 4 -110
12 -212 17 -227 12 -30 58 -53 87 -43 34 10 39 51 32 290 -6 210 -8 234 -29
276 -25 52 -117 145 -546 551 -154 146 -299 289 -321 319 -66 85 -97 151 -169
347 -117 321 -220 552 -483 1078 -93 187 -179 370 -191 408 -42 135 -19 250
60 304 70 48 144 12 223 -107 75 -114 258 -440 351 -624 84 -167 86 -174 91
-257 7 -110 25 -162 77 -231 85 -112 690 -778 717 -789 39 -16 62 -10 79 22
14 24 14 30 -1 62 -10 19 -131 162 -270 318 -400 447 -420 470 -446 527 -67
146 2 267 153 265 104 -1 174 -50 304 -214 104 -132 276 -306 471 -478 265
-235 385 -348 468 -444 211 -245 318 -450 356 -687 22 -133 39 -163 93 -163
67 0 80 83 38 241 -54 199 -162 413 -312 613 -102 137 -338 371 -493 488 -158
120 -206 168 -220 220 -6 22 -19 165 -30 318 -26 366 -44 431 -146 521 -53 46
-137 76 -183 66 -28 -6 -29 -5 -36 46 -22 156 -100 268 -214 307 -47 16 -134
15 -176 -2 -34 -15 -35 -15 -41 12 -38 155 -187 259 -333 231z m133 -159 c65
-58 71 -91 68 -385 -2 -143 -6 -291 -10 -330 l-7 -70 -158 293 c-174 324 -167
301 -116 403 59 118 149 154 223 89z m379 -209 c14 -6 37 -22 51 -38 45 -48
64 -133 81 -364 8 -117 15 -216 15 -220 0 -4 -24 3 -54 17 -84 38 -162 49
-232 31 -33 -9 -61 -14 -63 -11 -2 2 1 112 8 244 13 291 15 297 116 337 38 15
48 15 78 4z m375 -386 c35 -29 68 -95 83 -165 13 -60 37 -431 28 -428 -4 2
-49 50 -100 108 l-94 104 -11 196 c-9 146 -9 197 0 202 23 15 65 7 94 -17z"/>
<path d="M7593 5439 c-57 -11 -111 -40 -155 -86 -40 -41 -77 -114 -78 -150 0
-27 2 -27 -43 -8 -52 21 -143 19 -197 -6 -108 -49 -168 -145 -195 -312 -6 -36
-8 -38 -35 -32 -80 18 -207 -60 -256 -156 -42 -83 -54 -156 -73 -446 -24 -365
-17 -347 -211 -492 -438 -329 -744 -745 -850 -1160 -23 -90 -25 -145 -7 -180
24 -47 81 -45 112 3 9 13 23 66 31 118 45 280 189 532 463 806 53 53 191 180
306 282 261 230 392 361 518 518 113 141 176 195 255 218 46 14 64 14 108 5
136 -31 172 -170 80 -307 -19 -27 -179 -211 -356 -409 -177 -198 -329 -375
-337 -393 -26 -63 16 -107 77 -82 30 13 659 702 727 798 46 63 62 113 71 222
9 93 10 98 100 275 98 195 270 499 346 614 101 151 217 160 279 21 25 -56 26
-134 3 -215 -10 -33 -109 -244 -221 -470 -230 -463 -336 -699 -431 -954 -94
-256 -113 -298 -167 -378 -47 -71 -98 -122 -657 -654 -164 -157 -211 -208
-235 -254 l-30 -59 -3 -239 c-3 -215 -2 -241 14 -258 37 -41 99 -11 114 56 5
22 10 120 10 218 0 142 3 186 16 212 18 38 297 315 590 587 310 287 325 310
482 733 87 235 208 503 423 936 105 211 204 424 221 472 38 115 41 222 7 312
-29 79 -105 158 -169 175 -91 25 -208 -4 -281 -68 l-35 -30 -21 47 c-55 118
-190 192 -310 170z m111 -148 c62 -41 133 -191 109 -230 -6 -10 -75 -136 -153
-282 -78 -145 -145 -268 -150 -272 -9 -10 -23 263 -24 483 -1 182 13 239 70
290 42 36 102 41 148 11z m-409 -240 c57 -32 67 -66 76 -244 4 -89 8 -199 8
-244 1 -81 1 -82 -21 -74 -77 29 -180 20 -275 -24 l-54 -25 5 53 c3 28 11 122
16 207 12 177 22 235 49 288 20 38 55 75 81 85 22 9 81 -2 115 -22z m-397
-349 c10 -7 10 -46 1 -203 l-11 -194 -67 -74 c-36 -41 -81 -90 -99 -110 l-33
-36 6 130 c14 295 37 398 101 463 32 32 73 42 102 24z"/>
<path d="M176 2294 c-21 -20 -20 -37 2 -57 35 -32 112 -13 112 27 0 40 -83 62
-114 30z m78 -10 c24 -9 19 -33 -8 -40 -31 -7 -66 3 -66 21 0 21 41 32 74 19z"/>
<path d="M164 2174 c3 -9 6 -20 6 -25 0 -5 5 -9 10 -9 6 0 10 7 10 15 0 11 12
15 50 15 28 0 50 5 50 10 0 6 -29 10 -66 10 -56 0 -65 -2 -60 -16z"/>
<path d="M4415 2125 l-25 -24 0 -231 c0 -217 1 -231 20 -250 11 -11 33 -20 50
-20 17 0 39 9 50 20 19 19 20 33 20 250 l0 231 -25 24 c-13 14 -33 25 -45 25
-11 0 -32 -11 -45 -25z"/>
<path d="M5499 2131 c-24 -19 -24 -21 -27 -248 -3 -221 -2 -230 18 -256 16
-20 30 -27 55 -27 62 0 65 14 65 276 l0 233 -26 20 c-33 26 -55 26 -85 2z"/>
<path d="M160 2112 c0 -5 7 -17 15 -28 13 -17 14 -17 15 -1 0 14 9 17 50 17
28 0 50 5 50 10 0 6 -28 10 -65 10 -36 0 -65 -4 -65 -8z"/>
<path d="M160 2026 c0 -24 5 -36 14 -36 8 0 21 -3 29 -6 10 -3 18 5 26 26 13
38 36 35 36 -3 -1 -15 3 -27 7 -27 16 0 21 31 9 56 -15 33 -51 29 -69 -9 -14
-29 -32 -28 -32 3 0 10 -4 22 -10 25 -6 4 -10 -8 -10 -29z"/>
<path d="M235 1950 c-3 -5 -19 -7 -35 -4 -25 6 -30 3 -36 -21 -4 -15 -2 -31 5
-38 15 -15 92 -18 108 -5 18 14 16 43 -3 62 -18 18 -30 20 -39 6z m-27 -37
c-4 -22 -22 -20 -26 1 -2 10 3 16 13 16 10 0 15 -7 13 -17z m60 0 c-2 -10 -10
-18 -18 -18 -8 0 -16 8 -18 18 -2 12 3 17 18 17 15 0 20 -5 18 -17z"/>
<path d="M235 1840 c-3 -5 -19 -7 -35 -4 -25 6 -30 3 -36 -21 -4 -15 -2 -31 5
-38 15 -15 92 -18 108 -5 18 14 16 43 -3 62 -18 18 -30 20 -39 6z m-27 -37
c-4 -22 -22 -20 -26 1 -2 10 3 16 13 16 10 0 15 -7 13 -17z m60 0 c-2 -10 -10
-18 -18 -18 -8 0 -16 8 -18 18 -2 12 3 17 18 17 15 0 20 -5 18 -17z"/>
<path d="M223 1728 c-6 -7 -13 -22 -15 -33 -4 -18 -6 -17 -18 8 -7 15 -17 27
-22 27 -15 0 -8 -18 18 -49 34 -40 79 -43 96 -5 8 18 9 30 1 42 -13 22 -47 27
-60 10z m42 -34 c0 -10 -8 -20 -17 -22 -18 -3 -26 27 -11 42 12 11 28 0 28
-20z"/>
<path d="M160 1612 c0 -5 7 -17 15 -28 13 -17 14 -17 15 -1 0 14 9 17 50 17
28 0 50 5 50 10 0 6 -28 10 -65 10 -36 0 -65 -4 -65 -8z"/>
<path d="M223 1548 c-6 -7 -13 -22 -15 -33 -4 -18 -6 -17 -18 8 -7 15 -17 27
-22 27 -15 0 -8 -18 18 -49 34 -40 79 -43 96 -5 8 18 9 30 1 42 -13 22 -47 27
-60 10z m42 -34 c0 -10 -8 -20 -17 -22 -18 -3 -26 27 -11 42 12 11 28 0 28
-20z"/>
<path d="M190 1449 c0 -5 -4 -7 -10 -4 -5 3 -10 2 -10 -4 0 -5 6 -12 13 -15 9
-5 9 -7 0 -12 -10 -4 -9 -9 2 -20 8 -9 20 -12 26 -8 6 3 14 1 18 -5 5 -8 15
-9 31 -3 19 7 21 10 7 15 -23 9 -22 28 1 20 12 -4 11 0 -7 17 -18 18 -25 20
-32 9 -6 -11 -9 -10 -15 4 -7 19 -24 23 -24 6z m40 -39 c0 -5 -4 -10 -10 -10
-5 0 -10 5 -10 10 0 6 5 10 10 10 6 0 10 -4 10 -10z"/>
<path d="M140 1280 c0 -6 38 -10 95 -10 57 0 95 4 95 10 0 6 -38 10 -95 10
-57 0 -95 -4 -95 -10z"/>
<path d="M190 1197 c0 -9 10 -23 22 -31 22 -15 21 -16 -25 -16 -35 0 -47 -4
-47 -15 0 -12 15 -15 75 -15 60 0 75 3 75 15 0 9 -9 15 -22 16 l-23 0 23 16
c12 8 22 22 22 30 0 11 -6 9 -27 -6 l-26 -21 -24 22 c-19 18 -23 19 -23 5z"/>
<path d="M190 1084 c0 -32 20 -54 50 -54 30 0 50 22 50 54 0 25 -17 18 -24
-10 -9 -33 -49 -31 -54 4 -4 25 -22 31 -22 6z"/>
<path d="M206 994 c-19 -18 -20 -28 -6 -55 12 -22 59 -26 78 -7 26 26 1 78
-38 78 -10 0 -26 -7 -34 -16z m59 -29 c0 -22 -31 -33 -47 -17 -17 17 -1 44 24
40 15 -2 23 -10 23 -23z"/>
<path d="M190 900 c0 -5 -7 -10 -15 -10 -8 0 -15 -4 -15 -10 0 -5 6 -10 14
-10 8 0 16 -6 19 -12 4 -10 7 -10 18 0 7 6 28 12 46 12 26 0 33 4 33 20 0 11
-4 20 -10 20 -5 0 -10 -4 -10 -10 0 -5 -13 -10 -30 -10 -16 0 -30 5 -30 10 0
6 -4 10 -10 10 -5 0 -10 -4 -10 -10z"/>
<path d="M212 810 c-19 -34 -35 -34 -40 -2 -4 29 -22 28 -22 -1 0 -52 52 -63
78 -17 20 35 37 34 37 -4 -1 -31 19 -29 23 3 8 53 -49 69 -76 21z"/>
<path d="M200 675 c-21 -25 3 -65 38 -65 15 0 33 5 40 12 15 15 16 54 2 63 -6
3 -10 -5 -10 -19 0 -14 -4 -28 -10 -31 -6 -4 -10 7 -10 24 0 24 -4 31 -19 31
-10 0 -24 -7 -31 -15z m30 -26 c0 -11 -4 -17 -10 -14 -5 3 -10 13 -10 21 0 8
5 14 10 14 6 0 10 -9 10 -21z"/>
<path d="M202 578 c-7 -7 -12 -20 -12 -30 0 -13 -8 -18 -25 -18 -16 0 -25 -6
-25 -15 0 -13 13 -15 73 -13 67 3 72 5 75 26 7 46 -55 81 -86 50z m56 -20 c19
-19 14 -28 -18 -28 -18 0 -30 5 -30 13 0 28 27 36 48 15z"/>
<path d="M200 464 c-10 -11 -11 -23 -4 -42 16 -46 94 -39 94 9 0 42 -64 66
-90 33z m65 -29 c0 -22 -31 -33 -47 -17 -17 17 -1 44 24 40 15 -2 23 -10 23
-23z"/>
<path d="M140 355 c0 -9 9 -15 25 -15 15 0 25 -6 25 -14 0 -22 29 -46 55 -46
29 0 49 32 41 66 -6 22 -11 24 -76 24 -56 0 -70 -3 -70 -15z m128 -32 c-2 -12
-12 -18 -28 -18 -16 0 -26 6 -28 18 -3 13 3 17 28 17 25 0 31 -4 28 -17z"/>
<path d="M218 246 c-90 -28 -89 -45 2 -72 39 -12 70 -17 70 -12 0 6 -9 12 -20
15 -13 4 -20 14 -20 30 0 16 7 27 20 30 11 3 20 12 20 19 0 8 -1 14 -2 13 -2
-1 -33 -11 -70 -23z m10 -44 c-1 -5 -14 -5 -28 -1 l-25 6 25 10 c24 10 36 3
28 -15z"/>
</g>
</svg>
